<svg xmlns="http://www.w3.org/2000/svg" viewBox="0 0 168.50293 35.5625">
  <g id="Layer_2" data-name="Layer 2">
    <g id="Layer_1-2" data-name="Layer 1">
      <g>
        <path d="M0,30.54541V0L51.50293.5625,17.67383,2.50586H2.78906v11.499H16.28711v2.50586H2.78906V30.54541Z"/>
        <path d="M24.10254,30.54541V7.63623h2.66894V30.54541Z"/>
        <path d="M33.81152,30.54541V7.63623H36.3916v3.52h.19434A5.84887,5.84887,0,0,1,38.9873,8.35986a7.11459,7.11459,0,0,1,3.86231-1.0664q.32813,0,.73144.01465c.26856.01025,3.74317.24462,3.92188.25439l-3.251,2.4751q-.17871-.03-.626-.08936a7.40715,7.40715,0,0,0-.96973-.05957,6.20453,6.20453,0,0,0-4.4375,1.65528,5.536,5.536,0,0,0-1.752,4.206V30.54541Z"/>
        <path d="M55.18359,31.06738a8.732,8.732,0,0,1-3.78808-.813A6.54815,6.54815,0,0,1,48.666,27.898a6.67518,6.67518,0,0,1-1.01465-3.751,5.42929,5.42929,0,0,1,1.11914-3.602,6.85679,6.85679,0,0,1,3.10937-2.021,22.34334,22.34334,0,0,1,4.57129-.999q2.89307-.35815,4.44531-.64892,1.54982-.29077,1.55079-1.58838v-.53711a4.89287,4.89287,0,0,0-1.39454-3.69873,5.54661,5.54661,0,0,0-4.00488-1.34229,6.89668,6.89668,0,0,0-4.03418,1.08887,6.02092,6.02092,0,0,0-2.18554,2.56543l-2.52051-.91016a7.50391,7.50391,0,0,1,2.14843-3.00537,8.62447,8.62447,0,0,1,3.07227-1.62549,12.16667,12.16667,0,0,1,3.44531-.49951,11.60522,11.60522,0,0,1,2.7295.34278,7.977,7.977,0,0,1,2.64746,1.186,6.14245,6.14245,0,0,1,1.99121,2.334,8.35622,8.35622,0,0,1,.75976,3.80322V30.5625H62.44727V26.9209H62.2832a7.74693,7.74693,0,0,1-2.47558,2.834A7.54523,7.54523,0,0,1,55.18359,31.06738Zm.3584-2.43115a6.989,6.989,0,0,0,3.669-.93213,6.41337,6.41337,0,0,0,2.39355-2.498,7.15671,7.15671,0,0,0,.84278-3.44531v-3.311a3.41616,3.41616,0,0,1-1.46192.64843,21.536,21.536,0,0,1-2.334.45508q-1.26123.17871-2.2002.29834a11.50606,11.50606,0,0,0-4.52637,1.34229,3.33826,3.33826,0,0,0-1.61816,3.07226,3.83253,3.83253,0,0,0,1.49121,3.22168A5.9553,5.9553,0,0,0,55.542,28.63623Z"/>
        <path d="M87.5498,12.6626l-2.43164.686A5.97238,5.97238,0,0,0,83.34375,10.731,5.28862,5.28862,0,0,0,79.794,9.66455a6.25559,6.25559,0,0,0-3.81055,1.104,3.388,3.388,0,0,0-1.499,2.84864,3.05824,3.05824,0,0,0,1.02148,2.40136,7.4937,7.4937,0,0,0,3.1543,1.44678l3.46.8501Q87.877,19.73266,87.87793,24.356a5.78787,5.78787,0,0,1-1.07422,3.44531A7.16442,7.16442,0,0,1,83.81348,30.165a10.77276,10.77276,0,0,1-4.4375.85742,9.46949,9.46949,0,0,1-5.541-1.51367,6.8441,6.8441,0,0,1-2.78125-4.37744l2.55078-.62647q.96827,4.1316,5.72656,4.13135a6.86755,6.86755,0,0,0,4.22071-1.18555,3.58512,3.58512,0,0,0,1.58105-2.97558q0-2.84839-3.72851-3.72852l-3.74317-.895a8.58115,8.58115,0,0,1-4.415-2.26709,5.461,5.461,0,0,1-1.43164-3.84814,5.58185,5.58185,0,0,1,1.0293-3.3335,6.89761,6.89761,0,0,1,2.833-2.25928A9.84736,9.84736,0,0,1,79.794,7.32324a8.15024,8.15024,0,0,1,5.0332,1.42432A7.90653,7.90653,0,0,1,87.5498,12.6626Z"/>
        <path d="M93.69336,30.54541V0h2.65527V18.41992h.32813L107.415,7.63623h3.35547l-9.79883,9.814,10.39551,13.09521H107.9668l-8.97852-11.3501L96.34863,21.6709v8.87451Z"/>
        <path d="M118.40723,0V30.54541H115.752V0Z"/>
        <path d="M134.67773,31.02246a10.068,10.068,0,0,1-5.54785-1.49853,9.88923,9.88923,0,0,1-3.61718-4.16163,14.0522,14.0522,0,0,1-1.27442-6.1372,14.20076,14.20076,0,0,1,1.27442-6.15967,10.28249,10.28249,0,0,1,3.53515-4.21338,9.10823,9.10823,0,0,1,5.22754-1.52881,9.64054,9.64054,0,0,1,4.70606,1.21533,9.18629,9.18629,0,0,1,3.60156,3.70655,12.889,12.889,0,0,1,1.38672,6.32373v1.3125h-17.0625a9.59231,9.59231,0,0,0,2.17773,6.33886,7.08063,7.08063,0,0,0,5.59277,2.37159,6.70822,6.70822,0,0,0,3.99805-1.11133,6.30743,6.30743,0,0,0,2.207-2.64746l2.52051.82031a7.95,7.95,0,0,1-3.02734,3.76611A9.58847,9.58847,0,0,1,134.67773,31.02246Zm-7.75488-13.48291h14.333a8.73232,8.73232,0,0,0-.8877-3.97461,7.04563,7.04563,0,0,0-2.46093-2.79639,6.94254,6.94254,0,0,0-7.32325.02979,7.68981,7.68981,0,0,0-2.55761,2.8335A9.54281,9.54281,0,0,0,126.92285,17.53955Z"/>
        <path d="M158.04883,31.02246a8.39335,8.39335,0,0,1-4.92969-1.48389,9.73529,9.73529,0,0,1-3.31055-4.16113,15.24775,15.24775,0,0,1-1.18554-6.227,15.037,15.037,0,0,1,1.19238-6.19678,9.787,9.787,0,0,1,3.32617-4.14648,8.454,8.454,0,0,1,4.95215-1.48389,7.27246,7.27246,0,0,1,3.48242.74561A6.97025,6.97025,0,0,1,163.79883,9.896a9.91035,9.91035,0,0,1,1.29,2.11035h.23828V0h2.66992l.50586,35.5625-3.10156-5.01709V26.29492h-.3125a10.28957,10.28957,0,0,1-1.32032,2.14014,7.01923,7.01923,0,0,1-2.24511,1.8418A7.27712,7.27712,0,0,1,158.04883,31.02246Zm.31347-2.43066a5.991,5.991,0,0,0,3.78809-1.21582A7.59131,7.59131,0,0,0,164.544,24.0127a13.57471,13.57471,0,0,0,.82812-4.90674,13.33905,13.33905,0,0,0-.82031-4.855,7.46,7.46,0,0,0-2.38672-3.311,6.63027,6.63027,0,0,0-7.67383.04492,7.68844,7.68844,0,0,0-2.38574,3.36328A13.188,13.188,0,0,0,151.292,19.106a13.52386,13.52386,0,0,0,.81348,4.81738,7.75068,7.75068,0,0,0,2.39355,3.40771A6.00205,6.00205,0,0,0,158.3623,28.5918Z"/>
      </g>
    </g>
  </g>
</svg>
